<svg width="128" height="50" viewBox="0 0 128 50" fill="none" xmlns="http://www.w3.org/2000/svg">
<path d="M35.4277 13.2598C35.4277 13.3587 35.3906 13.4453 35.3164 13.5195C34.7969 14.0885 34.2031 14.5833 33.5352 15.0039C32.8672 15.3997 32.1497 15.7337 31.3828 16.0059C30.6159 16.2533 29.8366 16.4512 29.0449 16.5996C28.2533 16.7233 27.4863 16.7975 26.7441 16.8223C26.3236 19.2467 25.8906 21.696 25.4453 24.1699C25 26.6439 24.7773 29.1178 24.7773 31.5918C24.7773 32.3092 24.8145 33.0143 24.8887 33.707C24.9876 34.4245 25.1732 35.0553 25.4453 35.5996C25.7422 36.1686 26.1504 36.6139 26.6699 36.9355C27.2142 37.2819 27.9316 37.4551 28.8223 37.4551C28.9707 37.4551 29.1068 37.4427 29.2305 37.418C29.3789 37.3932 29.5273 37.3809 29.6758 37.3809C29.849 37.3809 29.985 37.4427 30.084 37.5664C30.1829 37.6901 30.2324 37.8385 30.2324 38.0117C30.2324 38.1849 30.1335 38.321 29.9355 38.4199C29.7624 38.5436 29.5521 38.6302 29.3047 38.6797C29.082 38.7292 28.847 38.7663 28.5996 38.791C28.3522 38.8158 28.1667 38.8281 28.043 38.8281C26.9792 38.8281 26.1009 38.6055 25.4082 38.1602C24.7402 37.7396 24.2083 37.1706 23.8125 36.4531C23.4167 35.7604 23.1322 34.9688 22.959 34.0781C22.8105 33.2122 22.7363 32.3464 22.7363 31.4805C22.7363 30.293 22.7982 29.0807 22.9219 27.8438C23.0703 26.6068 23.2435 25.3698 23.4414 24.1328C23.6641 22.8711 23.8991 21.6217 24.1465 20.3848C24.3939 19.1478 24.6289 17.9479 24.8516 16.7852C24.332 16.7604 23.8125 16.7357 23.293 16.7109C22.7734 16.6862 22.2539 16.6738 21.7344 16.6738C21.4622 16.6738 21.2025 16.6738 20.9551 16.6738C20.7077 16.6738 20.4479 16.6862 20.1758 16.7109C19.7552 17.3789 19.3099 18.0345 18.8398 18.6777C18.3945 19.321 17.9368 19.9642 17.4668 20.6074C16.6009 21.7949 15.6732 22.9824 14.6836 24.1699C13.694 25.3327 12.6302 26.4212 11.4922 27.4355C10.3789 28.4499 9.17904 29.3529 7.89258 30.1445C6.60612 30.9362 5.2207 31.5299 3.73633 31.9258C3.31576 32.0495 2.87044 32.1484 2.40039 32.2227C1.9056 32.3216 1.43555 32.3711 0.990234 32.3711C0.841797 32.3711 0.730469 32.3092 0.65625 32.1855C0.557292 32.0618 0.507812 31.9382 0.507812 31.8145C0.507812 31.5176 0.63151 31.3444 0.878906 31.2949C1.42318 31.1712 1.94271 31.0599 2.4375 30.9609C2.93229 30.8372 3.43945 30.6764 3.95898 30.4785C5.24544 29.9837 6.44531 29.3405 7.55859 28.5488C8.67188 27.7324 9.71094 26.8418 10.6758 25.877C11.6654 24.8874 12.5931 23.8483 13.459 22.7598C14.3249 21.6712 15.1536 20.5827 15.9453 19.4941C16.2422 19.0736 16.5267 18.6654 16.7988 18.2695C17.071 17.8737 17.3431 17.4655 17.6152 17.0449C16.6504 17.2428 15.8092 17.5273 15.0918 17.8984C14.3743 18.2448 13.6198 18.7025 12.8281 19.2715C12.7786 19.321 12.6921 19.3457 12.5684 19.3457C12.4447 19.3457 12.3086 19.2839 12.1602 19.1602C12.0365 19.0117 11.9746 18.8757 11.9746 18.752C11.9746 18.6283 12.0117 18.5293 12.0859 18.4551C12.9271 17.515 13.9538 16.7852 15.166 16.2656C16.403 15.7214 17.6276 15.3503 18.8398 15.1523C19.3346 14.3854 19.8542 13.5814 20.3984 12.7402C20.9427 11.8743 21.4993 11.0208 22.0684 10.1797C22.6621 9.3138 23.2682 8.4974 23.8867 7.73047C24.5052 6.9388 25.1484 6.23372 25.8164 5.61523C25.9648 5.51628 26.0762 5.4668 26.1504 5.4668H26.2246C26.1999 5.0957 26.138 4.72461 26.0391 4.35352C25.9648 3.95768 25.8288 3.61133 25.6309 3.31445C25.4577 2.99284 25.2227 2.73307 24.9258 2.53516C24.6289 2.33724 24.2578 2.23828 23.8125 2.23828C23.2188 2.23828 22.6003 2.34961 21.957 2.57227C21.3385 2.79492 20.7448 3.04232 20.1758 3.31445C19.6315 3.56185 19.1615 3.79688 18.7656 4.01953C18.3698 4.21745 18.1224 4.31641 18.0234 4.31641C17.875 4.31641 17.7389 4.25456 17.6152 4.13086C17.5163 3.98242 17.4668 3.84635 17.4668 3.72266C17.4668 3.54948 17.5534 3.40104 17.7266 3.27734C17.8503 3.17839 17.9987 3.0918 18.1719 3.01758C18.3451 2.91862 18.5059 2.81966 18.6543 2.7207C19.4707 2.25065 20.3366 1.81771 21.252 1.42188C22.1921 1.02604 23.1569 0.828125 24.1465 0.828125C24.3444 0.828125 24.5547 0.865234 24.7773 0.939453C25 0.988932 25.1979 1.05078 25.3711 1.125C25.8659 1.34766 26.2741 1.66927 26.5957 2.08984C26.9421 2.51042 27.2018 2.98047 27.375 3.5C27.5729 3.99479 27.709 4.52669 27.7832 5.0957C27.8574 5.63997 27.8945 6.15951 27.8945 6.6543C27.8945 8.03971 27.8203 9.41276 27.6719 10.7734C27.5234 12.1094 27.3379 13.4577 27.1152 14.8184C28.1543 14.6947 29.1686 14.5091 30.1582 14.2617C31.1725 13.9896 32.1621 13.6556 33.127 13.2598C33.3991 13.1608 33.6589 13.0618 33.9062 12.9629C34.1536 12.8392 34.4134 12.7155 34.6855 12.5918H34.7969C34.9453 12.5918 35.0814 12.666 35.2051 12.8145C35.3535 12.9382 35.4277 13.0866 35.4277 13.2598ZM26.2246 7.17383C25.903 7.7181 25.4948 8.39844 25 9.21484C24.5052 10.0065 24.0104 10.7982 23.5156 11.5898C23.0456 12.3568 22.6126 13.0495 22.2168 13.668C21.821 14.2865 21.5612 14.6823 21.4375 14.8555C21.6354 14.8555 21.8333 14.8555 22.0312 14.8555C22.2539 14.8307 22.4766 14.8184 22.6992 14.8184C23.0703 14.8184 23.4414 14.8307 23.8125 14.8555C24.2083 14.8802 24.5918 14.8926 24.9629 14.8926H25.2227C25.4701 13.6061 25.6803 12.332 25.8535 11.0703C26.0514 9.78385 26.1751 8.48503 26.2246 7.17383ZM43.5547 7.69336C43.5547 7.74284 43.5423 7.77995 43.5176 7.80469C43.5176 7.82943 43.5176 7.85417 43.5176 7.87891C42.7507 9.58594 41.959 11.2806 41.1426 12.9629C40.3262 14.6204 39.5964 16.3398 38.9531 18.1211C39.2253 18.1211 39.485 18.1211 39.7324 18.1211C39.9798 18.0964 40.2396 18.084 40.5117 18.084C40.6354 18.084 40.7715 18.084 40.9199 18.084C41.0931 18.0592 41.2415 18.0716 41.3652 18.1211C41.5137 18.1458 41.6374 18.2077 41.7363 18.3066C41.8353 18.3809 41.8848 18.5169 41.8848 18.7148C41.8848 18.9622 41.7858 19.123 41.5879 19.1973C41.4147 19.2467 41.1797 19.3086 40.8828 19.3828C40.6107 19.4323 40.3138 19.4818 39.9922 19.5312C39.6953 19.5807 39.3984 19.6302 39.1016 19.6797C38.8294 19.7044 38.5944 19.7292 38.3965 19.7539C38.1738 20.3971 37.9635 21.1146 37.7656 21.9062C37.5677 22.6732 37.3945 23.4772 37.2461 24.3184C37.0977 25.1348 36.974 25.9512 36.875 26.7676C36.776 27.5592 36.7266 28.2891 36.7266 28.957C36.7266 29.1302 36.7266 29.4023 36.7266 29.7734C36.7513 30.1198 36.7884 30.4661 36.8379 30.8125C36.9121 31.1589 37.0111 31.4681 37.1348 31.7402C37.2832 32.0124 37.4811 32.1484 37.7285 32.1484C38.0749 32.1484 38.4707 31.9753 38.916 31.6289C39.3613 31.2826 39.7943 30.8867 40.2148 30.4414C40.6602 29.9714 41.0684 29.5137 41.4395 29.0684C41.8353 28.5983 42.1569 28.2396 42.4043 27.9922C42.5033 27.8932 42.6146 27.8438 42.7383 27.8438C42.8867 27.8438 43.0228 27.9056 43.1465 28.0293C43.2949 28.153 43.3691 28.2891 43.3691 28.4375C43.3691 28.5117 43.332 28.5983 43.2578 28.6973C42.9857 29.0931 42.627 29.5879 42.1816 30.1816C41.7611 30.7507 41.291 31.3073 40.7715 31.8516C40.2767 32.3711 39.7448 32.8164 39.1758 33.1875C38.6315 33.5586 38.0996 33.7441 37.5801 33.7441C37.0111 33.7441 36.5534 33.5462 36.207 33.1504C35.8607 32.7546 35.5885 32.2845 35.3906 31.7402C35.2174 31.1712 35.0938 30.5898 35.0195 29.9961C34.9701 29.3776 34.9453 28.8581 34.9453 28.4375C34.9453 27.8438 34.9824 27.1758 35.0566 26.4336C35.1556 25.6914 35.2669 24.9368 35.3906 24.1699C35.5143 23.403 35.6628 22.6608 35.8359 21.9434C36.0091 21.2012 36.1699 20.5332 36.3184 19.9395C36.1204 19.9395 35.9225 19.9518 35.7246 19.9766C35.5514 19.9766 35.3659 19.9766 35.168 19.9766C34.6484 19.9766 34.1165 19.9642 33.5723 19.9395C33.028 19.9147 32.4961 19.8652 31.9766 19.791C31.457 19.6921 30.9499 19.5436 30.4551 19.3457C29.9603 19.123 29.515 18.8262 29.1191 18.4551C29.0202 18.3809 28.9707 18.2695 28.9707 18.1211C28.9707 18.0716 29.0449 17.9479 29.1934 17.75C29.3418 17.5273 29.4408 17.416 29.4902 17.416C30.4056 17.416 31.3086 17.515 32.1992 17.7129C33.0898 17.9108 33.9928 18.0345 34.9082 18.084C35.2051 18.1087 35.502 18.1211 35.7988 18.1211C36.1204 18.1211 36.4421 18.1211 36.7637 18.1211H36.875C37.1471 17.2799 37.4811 16.3646 37.877 15.375C38.2728 14.3854 38.7181 13.4082 39.2129 12.4434C39.7077 11.4785 40.2272 10.5508 40.7715 9.66016C41.3405 8.74479 41.9219 7.95312 42.5156 7.28516C42.6641 7.1862 42.7878 7.13672 42.8867 7.13672C43.0352 7.13672 43.1836 7.19857 43.332 7.32227C43.4805 7.42122 43.5547 7.54492 43.5547 7.69336ZM61.293 14.5586C61.293 14.6576 61.2806 14.7318 61.2559 14.7812C60.3158 17.3047 59.3138 19.7786 58.25 22.2031C57.1862 24.6029 56.1842 27.0645 55.2441 29.5879C54.7741 30.8001 54.3535 32.0124 53.9824 33.2246C53.6361 34.4368 53.2897 35.6738 52.9434 36.9355C52.8691 37.2077 52.7826 37.4551 52.6836 37.6777C52.6094 37.9251 52.5228 38.1849 52.4238 38.457C52.127 39.3724 51.8177 40.263 51.4961 41.1289C51.1745 42.0195 50.8034 42.8854 50.3828 43.7266C49.9622 44.5677 49.4798 45.3594 48.9355 46.1016C48.3913 46.8685 47.7728 47.5241 47.0801 48.0684C46.3874 48.6374 45.6328 49.0827 44.8164 49.4043C44 49.7507 43.1094 49.9238 42.1445 49.9238C41.1302 49.9238 40.1901 49.7383 39.3242 49.3672C38.4336 49.0208 37.6172 48.5384 36.875 47.9199C36.1328 47.3262 35.4772 46.6087 34.9082 45.7676C34.3145 44.9512 33.7949 44.0605 33.3496 43.0957C33.3001 42.9967 33.2754 42.9102 33.2754 42.8359C33.2507 42.638 33.3125 42.4896 33.4609 42.3906C33.5846 42.3164 33.7207 42.2793 33.8691 42.2793C33.9681 42.2793 34.0547 42.3164 34.1289 42.3906C34.2031 42.4648 34.265 42.5391 34.3145 42.6133C34.4876 42.8854 34.6484 43.1699 34.7969 43.4668C34.9206 43.7884 35.0814 44.0853 35.2793 44.3574C35.6504 44.877 36.0833 45.3717 36.5781 45.8418C37.0482 46.3366 37.5801 46.7572 38.1738 47.1035C38.7428 47.4746 39.349 47.7591 39.9922 47.957C40.6354 48.1797 41.291 48.291 41.959 48.291C42.9733 48.291 43.9134 48.0436 44.7793 47.5488C46.0163 46.8066 47.043 45.7799 47.8594 44.4688C48.6758 43.1576 49.3809 41.7103 49.9746 40.127C50.5436 38.5931 51.026 37.0221 51.4219 35.4141C51.8424 33.8307 52.263 32.3464 52.6836 30.9609C52.3867 31.2331 52.028 31.5299 51.6074 31.8516C51.1868 32.1732 50.7539 32.4701 50.3086 32.7422C49.8633 33.0391 49.4056 33.2865 48.9355 33.4844C48.4902 33.6823 48.082 33.7812 47.7109 33.7812C46.9935 33.7812 46.3379 33.5462 45.7441 33.0762C45.1751 32.6061 44.8164 31.9753 44.668 31.1836C44.5443 30.6888 44.4701 30.2311 44.4453 29.8105C44.3958 29.0436 44.4206 28.2396 44.5195 27.3984C44.6432 26.5326 44.804 25.679 45.002 24.8379C45.2246 23.972 45.472 23.1432 45.7441 22.3516C46.0163 21.5352 46.3008 20.793 46.5977 20.125C47.2161 18.6901 47.8841 17.2799 48.6016 15.8945C48.75 15.6224 48.8861 15.3379 49.0098 15.041C49.1335 14.7441 49.2819 14.4596 49.4551 14.1875C49.554 14.0391 49.7025 13.9648 49.9004 13.9648C50.0241 13.9648 50.1602 14.0391 50.3086 14.1875C50.457 14.3112 50.5436 14.4473 50.5684 14.5957L50.457 15.1523C50.2344 16.1914 49.9375 17.2057 49.5664 18.1953C49.2201 19.1849 48.849 20.1497 48.4531 21.0898C48.181 21.7578 47.8965 22.4629 47.5996 23.2051C47.3275 23.9225 47.0801 24.6523 46.8574 25.3945C46.6595 26.1367 46.4987 26.8913 46.375 27.6582C46.2513 28.4004 46.2142 29.1426 46.2637 29.8848C46.2884 30.1074 46.3132 30.3424 46.3379 30.5898C46.3874 30.8372 46.4616 31.0723 46.5605 31.2949C46.6595 31.4928 46.7832 31.666 46.9316 31.8145C47.0801 31.9382 47.278 32 47.5254 32C47.946 32 48.4408 31.8639 49.0098 31.5918C49.5788 31.2949 50.1478 30.9609 50.7168 30.5898C51.2858 30.194 51.8177 29.7858 52.3125 29.3652C52.832 28.9447 53.2526 28.5859 53.5742 28.2891C54.2174 26.5078 54.9102 24.776 55.6523 23.0938C56.3945 21.3867 57.1986 19.7168 58.0645 18.084C58.4108 17.4408 58.7572 16.7852 59.1035 16.1172C59.4499 15.4245 59.821 14.7689 60.2168 14.1504C60.3158 13.9772 60.4642 13.8906 60.6621 13.8906C60.8353 13.8906 60.9714 13.9648 61.0703 14.1133C61.194 14.237 61.2682 14.3854 61.293 14.5586ZM74.7266 18.8262C74.7266 20.4095 74.4421 21.9434 73.873 23.4277C73.3288 24.8874 72.6237 26.2852 71.7578 27.6211C71.3372 28.2396 70.8796 28.8457 70.3848 29.4395C69.9147 30.0085 69.3828 30.5156 68.7891 30.9609C68.2201 31.4062 67.5892 31.765 66.8965 32.0371C66.2285 32.3092 65.4987 32.4453 64.707 32.4453C64.6081 32.4453 64.4473 32.4329 64.2246 32.4082C64.0267 32.4082 63.8906 32.3958 63.8164 32.3711C63.4206 32.2721 63.0618 32.0618 62.7402 31.7402C62.4186 31.4186 62.1836 31.0723 62.0352 30.7012C61.7383 31.4928 61.3548 32.4824 60.8848 33.6699C60.4147 34.8822 59.8704 36.1562 59.252 37.4922C58.6335 38.8281 57.9531 40.1641 57.2109 41.5C56.444 42.8607 55.64 44.0729 54.7988 45.1367C53.9329 46.2253 53.0299 47.1035 52.0898 47.7715C51.125 48.4395 50.1478 48.7734 49.1582 48.7734C48.4655 48.7734 47.847 48.6374 47.3027 48.3652C46.7585 48.1178 46.276 47.7715 45.8555 47.3262C45.4102 46.9056 45.0143 46.4232 44.668 45.8789C44.3216 45.3594 44 44.8275 43.7031 44.2832C43.6536 44.1842 43.6289 44.11 43.6289 44.0605C43.6289 43.9121 43.7031 43.776 43.8516 43.6523C43.9753 43.5534 44.099 43.5039 44.2227 43.5039C44.3958 43.5039 44.5319 43.5781 44.6309 43.7266C44.7546 43.9245 44.8783 44.11 45.002 44.2832C45.1257 44.4564 45.2493 44.6419 45.373 44.8398C45.7936 45.4336 46.3008 46.0026 46.8945 46.5469C47.4883 47.0911 48.181 47.3633 48.9727 47.3633C49.6901 47.3633 50.4076 47.1035 51.125 46.584C51.8177 46.0645 52.498 45.3841 53.166 44.543C53.834 43.7018 54.4648 42.7617 55.0586 41.7227C55.6523 40.7083 56.1966 39.694 56.6914 38.6797C57.1862 37.6654 57.6315 36.7005 58.0273 35.7852C58.3984 34.8945 58.6953 34.1771 58.918 33.6328C59.7839 31.431 60.5508 29.2168 61.2188 26.9902C61.8867 24.7637 62.5176 22.5 63.1113 20.1992C63.3092 19.4323 63.4948 18.6777 63.668 17.9355C63.8659 17.1934 64.0638 16.4388 64.2617 15.6719C64.3607 15.3503 64.4349 15.0286 64.4844 14.707C64.5586 14.3607 64.6576 14.0267 64.7812 13.7051C64.8802 13.4577 65.0534 13.334 65.3008 13.334C65.474 13.334 65.6224 13.3835 65.7461 13.4824C65.8698 13.5566 65.9316 13.6803 65.9316 13.8535C65.9316 14.1257 65.9193 14.4225 65.8945 14.7441C65.8698 15.0658 65.8327 15.3997 65.7832 15.7461C65.8822 15.6966 65.9688 15.6595 66.043 15.6348C66.1172 15.5853 66.1914 15.5358 66.2656 15.4863C66.9336 15.14 67.5645 14.8555 68.1582 14.6328C68.7767 14.3854 69.457 14.1999 70.1992 14.0762C70.3229 14.0514 70.4342 14.0391 70.5332 14.0391C70.6569 14.0143 70.7806 14.002 70.9043 14.002C71.3743 14.002 71.8197 14.1009 72.2402 14.2988C72.6608 14.472 73.0319 14.7194 73.3535 15.041C73.6999 15.3379 73.9844 15.6966 74.207 16.1172C74.4297 16.513 74.5781 16.9336 74.6523 17.3789C74.6771 17.6263 74.6895 17.8737 74.6895 18.1211C74.7142 18.3438 74.7266 18.5788 74.7266 18.8262ZM73.0566 18.5293C73.0566 17.6882 72.8835 16.9707 72.5371 16.377C72.1908 15.7585 71.5475 15.4492 70.6074 15.4492C70.1374 15.4492 69.6302 15.5358 69.0859 15.709C68.5417 15.8574 68.0345 16.0306 67.5645 16.2285C67.0944 16.4264 66.6738 16.612 66.3027 16.7852C65.9564 16.9583 65.7337 17.0449 65.6348 17.0449C65.4863 18.0592 65.3008 19.0736 65.0781 20.0879C64.8802 21.1022 64.6823 21.9805 64.4844 22.7227C64.3854 23.1432 64.2617 23.5762 64.1133 24.0215C63.9896 24.4421 63.8906 24.8626 63.8164 25.2832C63.7422 25.679 63.6927 26.1615 63.668 26.7305C63.6432 27.2995 63.6309 27.7943 63.6309 28.2148C63.6309 28.3633 63.6309 28.5612 63.6309 28.8086C63.6309 29.0312 63.6432 29.2539 63.668 29.4766C63.7174 29.6992 63.7793 29.8971 63.8535 30.0703C63.9525 30.2435 64.1009 30.3548 64.2988 30.4043C64.373 30.429 64.4473 30.4414 64.5215 30.4414C64.6204 30.4414 64.707 30.4414 64.7812 30.4414C65.3255 30.4414 65.8574 30.3177 66.377 30.0703C66.9212 29.8229 67.4284 29.5137 67.8984 29.1426C68.3685 28.7715 68.8014 28.3633 69.1973 27.918C69.5931 27.4479 69.9271 27.0026 70.1992 26.582C70.9661 25.3945 71.6341 24.1081 72.2031 22.7227C72.7721 21.3372 73.0566 19.9395 73.0566 18.5293ZM85.7109 4.35352C85.7109 4.50195 85.6491 4.67513 85.5254 4.87305L85.4883 4.98438C85.5378 5.13281 85.5625 5.24414 85.5625 5.31836C85.3893 5.44206 85.2656 5.57812 85.1914 5.72656C85.1172 5.85026 84.944 5.91211 84.6719 5.91211C84.4492 5.91211 84.2266 5.82552 84.0039 5.65234C83.7812 5.45443 83.6699 5.2194 83.6699 4.94727C83.6699 4.50195 83.707 4.14323 83.7812 3.87109C83.8802 3.57422 84.2142 3.42578 84.7832 3.42578C85.0059 3.42578 85.2161 3.52474 85.4141 3.72266C85.612 3.92057 85.7109 4.13086 85.7109 4.35352ZM85.4512 28.0293C85.4512 28.153 85.4141 28.252 85.3398 28.3262C84.8698 28.8952 84.4121 29.4642 83.9668 30.0332C83.5462 30.5775 83.0885 31.0846 82.5938 31.5547C82.1237 32.0247 81.5918 32.4206 80.998 32.7422C80.4043 33.0885 79.724 33.3359 78.957 33.4844C78.2891 33.1875 77.8314 32.7917 77.584 32.2969C77.3366 31.8268 77.2129 31.2454 77.2129 30.5527V29.2168C77.2129 28.5736 77.2747 27.9056 77.3984 27.2129C77.5469 26.5202 77.6953 25.8522 77.8438 25.209C78.0664 24.2441 78.3138 23.2051 78.5859 22.0918C78.8828 20.9785 79.2168 19.8776 79.5879 18.7891C79.9837 17.6758 80.429 16.612 80.9238 15.5977C81.4186 14.5586 81.9753 13.6556 82.5938 12.8887C82.7174 12.765 82.8411 12.7031 82.9648 12.7031C83.1133 12.7031 83.2617 12.765 83.4102 12.8887C83.5586 12.9876 83.6328 13.1237 83.6328 13.2969V13.3711C83.2122 14.6823 82.7298 16.0677 82.1855 17.5273C81.666 18.9622 81.1589 20.4342 80.6641 21.9434C80.194 23.4277 79.7858 24.9121 79.4395 26.3965C79.1178 27.8809 78.957 29.3158 78.957 30.7012C78.957 30.8496 78.957 31.0599 78.957 31.332C78.9818 31.6042 79.0684 31.7773 79.2168 31.8516C79.7611 31.7526 80.3301 31.4681 80.9238 30.998C81.5423 30.528 82.1113 30.0332 82.6309 29.5137C83.1751 28.9941 83.6452 28.5241 84.041 28.1035C84.4368 27.6829 84.709 27.4727 84.8574 27.4727C84.9811 27.4727 85.1048 27.5345 85.2285 27.6582C85.377 27.7819 85.4512 27.9056 85.4512 28.0293ZM97.4004 14.5215C97.4004 14.7689 97.3014 14.9297 97.1035 15.0039C96.6829 15.2018 96.2624 15.3874 95.8418 15.5605C95.446 15.7337 95.0501 15.9564 94.6543 16.2285C92.9967 17.2428 91.5742 18.5293 90.3867 20.0879C89.1992 21.6465 88.3581 23.3659 87.8633 25.2461C87.6406 26.2109 87.5293 27.1882 87.5293 28.1777C87.5293 28.5241 87.554 28.9076 87.6035 29.3281C87.653 29.724 87.7396 30.1198 87.8633 30.5156C88.0117 30.9115 88.1973 31.2702 88.4199 31.5918C88.6673 31.9134 88.9766 32.1484 89.3477 32.2969C89.3724 32.3216 89.4095 32.334 89.459 32.334C89.5332 32.334 89.5827 32.334 89.6074 32.334C90.2259 32.334 90.7949 32.1732 91.3145 31.8516C91.834 31.5052 92.304 31.1217 92.7246 30.7012C93.3926 30.0332 94.0234 29.2663 94.6172 28.4004C94.7409 28.2272 94.8646 28.054 94.9883 27.8809C95.112 27.7077 95.2357 27.5469 95.3594 27.3984C95.4336 27.2747 95.5449 27.2129 95.6934 27.2129C95.8418 27.2129 95.9779 27.2747 96.1016 27.3984C96.25 27.4974 96.3242 27.6211 96.3242 27.7695C96.3242 27.819 96.2624 27.9427 96.1387 28.1406C96.0397 28.3385 95.916 28.5612 95.7676 28.8086C95.6191 29.0312 95.4707 29.2539 95.3223 29.4766C95.1986 29.6745 95.112 29.8105 95.0625 29.8848C94.7161 30.4043 94.3451 30.9115 93.9492 31.4062C93.5781 31.901 93.1576 32.334 92.6875 32.7051C92.2422 33.0762 91.735 33.373 91.166 33.5957C90.597 33.8184 89.9785 33.9297 89.3105 33.9297C89.1621 33.9297 89.0508 33.9173 88.9766 33.8926C88.5065 33.8184 88.0859 33.6328 87.7148 33.3359C87.3685 33.0638 87.0592 32.7174 86.7871 32.2969C86.5397 31.901 86.3418 31.4805 86.1934 31.0352C86.0449 30.5651 85.9336 30.1198 85.8594 29.6992C85.8099 29.4023 85.7728 29.1055 85.748 28.8086C85.7233 28.5117 85.7109 28.2025 85.7109 27.8809C85.7109 26.8171 85.8346 25.8027 86.082 24.8379C86.3294 23.7493 86.6882 22.6732 87.1582 21.6094C87.653 20.5456 88.2467 19.556 88.9395 18.6406C89.6322 17.7253 90.4238 16.9212 91.3145 16.2285C92.2051 15.5111 93.1947 14.9421 94.2832 14.5215C94.6543 14.373 95.0749 14.237 95.5449 14.1133C96.015 13.9648 96.4603 13.8906 96.8809 13.8906C97.0046 13.8906 97.1159 13.9648 97.2148 14.1133C97.3385 14.2617 97.4004 14.3978 97.4004 14.5215ZM114.359 26.2109C113.716 27.5221 113.048 28.6973 112.355 29.7363C111.663 30.7507 110.76 31.7402 109.646 32.7051C109.102 33.1999 108.484 33.4473 107.791 33.4473C107.42 33.4473 107.061 33.3359 106.715 33.1133C106.393 32.9154 106.171 32.6309 106.047 32.2598C105.997 32.1361 105.96 31.9629 105.936 31.7402C105.936 31.5176 105.923 31.2826 105.898 31.0352C105.898 30.7878 105.898 30.5527 105.898 30.3301C105.923 30.0827 105.936 29.8848 105.936 29.7363C105.07 30.7754 104.043 31.6536 102.855 32.3711C101.693 33.1133 100.406 33.4844 98.9961 33.4844C98.9219 33.4844 98.8105 33.4596 98.6621 33.4102C98.5384 33.3607 98.4395 33.3236 98.3652 33.2988C97.7962 33.0267 97.3633 32.5938 97.0664 32C96.7943 31.4062 96.6582 30.8125 96.6582 30.2188C96.6582 29.4023 96.7572 28.5983 96.9551 27.8066C97.1777 26.9902 97.4622 26.2109 97.8086 25.4688C98.1797 24.7018 98.6003 23.972 99.0703 23.2793C99.5404 22.5866 100.035 21.931 100.555 21.3125C101.891 19.6549 103.424 18.2201 105.156 17.0078C106.888 15.7708 108.768 14.7812 110.797 14.0391C110.822 14.0143 110.871 14.002 110.945 14.002C111.118 14.002 111.242 14.0638 111.316 14.1875C111.415 14.3112 111.465 14.4473 111.465 14.5957C111.465 14.8184 111.378 14.9668 111.205 15.041C110.785 15.2637 110.364 15.474 109.943 15.6719C109.548 15.8451 109.152 16.043 108.756 16.2656C106.01 17.849 103.697 19.8776 101.816 22.3516C101.445 22.8464 101.062 23.403 100.666 24.0215C100.27 24.64 99.9115 25.2832 99.5898 25.9512C99.2682 26.5944 98.9961 27.2624 98.7734 27.9551C98.5755 28.6478 98.4766 29.3158 98.4766 29.959C98.4766 30.0579 98.4889 30.2064 98.5137 30.4043C98.5384 30.5775 98.5755 30.763 98.625 30.9609C98.6745 31.1341 98.7487 31.2949 98.8477 31.4434C98.9714 31.5671 99.1074 31.6289 99.2559 31.6289C99.9733 31.6289 100.666 31.4434 101.334 31.0723C102.027 30.7012 102.67 30.2311 103.264 29.6621C103.857 29.0931 104.389 28.487 104.859 27.8438C105.329 27.2005 105.713 26.5944 106.01 26.0254C106.579 24.9863 107.086 23.9473 107.531 22.9082C107.977 21.8444 108.422 20.7806 108.867 19.7168C109.04 19.2715 109.238 18.752 109.461 18.1582C109.708 17.5645 109.943 17.0573 110.166 16.6367C110.265 16.4635 110.426 16.377 110.648 16.377C110.822 16.377 110.97 16.4264 111.094 16.5254C111.217 16.6243 111.279 16.7604 111.279 16.9336L111.242 17.0078C111.044 17.8984 110.822 18.8014 110.574 19.7168C110.327 20.6074 110.055 21.4857 109.758 22.3516C109.634 22.6979 109.486 23.0814 109.312 23.502C109.139 23.9225 109.003 24.2812 108.904 24.5781C108.855 24.7513 108.818 24.9245 108.793 25.0977C108.793 25.2708 108.781 25.444 108.756 25.6172C108.682 26.013 108.595 26.4089 108.496 26.8047C108.422 27.1758 108.335 27.5592 108.236 27.9551C108.113 28.4499 108.001 28.957 107.902 29.4766C107.828 29.9714 107.791 30.4785 107.791 30.998C107.791 31.1217 107.791 31.2331 107.791 31.332C107.791 31.431 107.803 31.5299 107.828 31.6289C108.001 31.6289 108.199 31.5547 108.422 31.4062C108.669 31.2578 108.917 31.0846 109.164 30.8867C109.411 30.6641 109.634 30.4414 109.832 30.2188C110.055 29.9961 110.228 29.8229 110.352 29.6992C111.094 28.9076 111.799 28.0293 112.467 27.0645C112.64 26.8665 112.788 26.6562 112.912 26.4336C113.061 26.1862 113.221 25.9635 113.395 25.7656C113.469 25.6419 113.58 25.5801 113.729 25.5801C113.902 25.5801 114.05 25.6419 114.174 25.7656C114.298 25.8893 114.359 26.0378 114.359 26.2109ZM127.014 29.5879C127.014 29.7116 126.964 29.8229 126.865 29.9219C126.469 30.293 125.987 30.7135 125.418 31.1836C124.849 31.6536 124.243 32.0866 123.6 32.4824C122.981 32.8783 122.338 33.2122 121.67 33.4844C121.027 33.7565 120.433 33.8926 119.889 33.8926C119.097 33.8926 118.479 33.6947 118.033 33.2988C117.588 32.903 117.242 32.4206 116.994 31.8516C116.771 31.2578 116.623 30.627 116.549 29.959C116.499 29.2663 116.475 28.623 116.475 28.0293C116.475 26.6439 116.611 25.2832 116.883 23.9473C117.155 22.6113 117.452 21.2754 117.773 19.9395C118.392 17.3418 119.134 14.806 120 12.332C120.891 9.85807 122.004 7.45833 123.34 5.13281C123.587 4.6875 123.835 4.24219 124.082 3.79688C124.354 3.35156 124.639 2.93099 124.936 2.53516C125.035 2.38672 125.171 2.3125 125.344 2.3125C125.492 2.3125 125.628 2.36198 125.752 2.46094C125.9 2.5599 125.975 2.69596 125.975 2.86914C125.975 2.94336 125.962 3.00521 125.938 3.05469C124.824 5.92448 123.674 8.7819 122.486 11.627C121.299 14.472 120.334 17.3913 119.592 20.3848C119.245 21.7207 118.924 23.0814 118.627 24.4668C118.355 25.8275 118.219 27.2129 118.219 28.623C118.219 28.9941 118.219 29.4023 118.219 29.8477C118.243 30.2682 118.305 30.6641 118.404 31.0352C118.528 31.4062 118.714 31.7279 118.961 32C119.233 32.2474 119.617 32.3711 120.111 32.3711C120.656 32.3711 121.262 32.1979 121.93 31.8516C122.622 31.5052 123.278 31.1217 123.896 30.7012C124.54 30.2559 125.096 29.86 125.566 29.5137C126.036 29.1673 126.321 28.9941 126.42 28.9941C126.568 28.9941 126.704 29.056 126.828 29.1797C126.952 29.3034 127.014 29.4395 127.014 29.5879Z" fill="white"/>
</svg>
